# xmcd
#
# Track frame offsets:
#	150
#	24899
#	48750
#	68262
#	79951
#	96733
#	119349
#	132292
#	164800
#	185875
#	208237
#	233033
#	253880
#
# Disc length: 4025 seconds
#
# Revision: 1
# Processed by: cddbd v1.4PL0 Copyright (c) Steve Scherf et al.
# Submitted via: audiograbber 1.81.03
#
DISCID=bc0fb70d
DTITLE=Blues Wire - Fence
DYEAR=2002
DGENRE=Electric Blues
TTITLE0=Wait Till Yesterday
TTITLE1=Tell Me Why
TTITLE2=Ghost Town
TTITLE3=Intro
TTITLE4=Locomotive Breath
TTITLE5=Keep Blues Alive
TTITLE6=Never Again
TTITLE7=The Quiet Man
TTITLE8=Graveyard Bound
TTITLE9=Dream
TTITLE10=Jump The Fence
TTITLE11=Neo Blues (Part One)
TTITLE12=Wishbone
EXTD=Excelent Blues Band From Thessaloniki/Greece
EXTT0=
EXTT1=
EXTT2=
EXTT3=
EXTT4=
EXTT5=
EXTT6=
EXTT7=
EXTT8=
EXTT9=
EXTT10=
EXTT11=
EXTT12=
PLAYORDER=
